Coordinates
version=1
nRows=60
nColumns=12
inDegrees=yes

Units are S.I. units (second, meters, Newtons, ...)
Angles are in degrees

endheader
time	SC_y	SC_z	SC_x	AC_y	AC_z	AC_x	GH_y	GH_z	GH_yy	EL_x	PS_y
       0.0              -25.94          31.26          53.98          60.03         -19.59         -2.683         -177.0           89.3         -114.2          18.66          113.1
  0.003723              -25.94          31.26          53.98          60.03         -19.59         -2.685         -177.0          89.29         -114.2          18.67          113.1
  0.007446              -25.94          31.25          53.97          60.02         -19.59         -2.687         -177.0          89.28         -114.2          18.68          113.1
   0.01117              -25.94          31.24          53.96          60.02         -19.59         -2.689         -176.9          89.27         -114.2          18.69          113.1
   0.01489              -25.94          31.24          53.96          60.01         -19.59         -2.691         -176.9          89.26         -114.2          18.71          113.1
   0.01861              -25.94          31.23          53.95          60.01         -19.59         -2.693         -176.8          89.25         -114.2          18.72          113.1
   0.02234              -25.94          31.22          53.94          60.01         -19.59         -2.695         -176.8          89.23         -114.2          18.74          113.1
   0.02606              -25.94          31.22          53.93           60.0         -19.59         -2.698         -176.8          89.22         -114.2          18.76          113.1
   0.02978              -25.94          31.21          53.92           60.0         -19.59         -2.701         -176.7           89.2         -114.2          18.78          113.1
   0.03351              -25.94           31.2          53.91          59.99         -19.59         -2.704         -176.7          89.19         -114.2           18.8          113.0
   0.03723              -25.94          31.19           53.9          59.98         -19.59         -2.707         -176.6          89.17         -114.2          18.82          113.0
   0.04095              -25.94          31.18          53.89          59.98         -19.59          -2.71         -176.5          89.16         -114.1          18.84          113.0
   0.04468              -25.94          31.17          53.88          59.97         -19.59         -2.714         -176.5          89.14         -114.1          18.86          113.0
    0.0484              -25.94          31.16          53.87          59.96         -19.59         -2.718         -176.4          89.12         -114.1          18.89          113.0
   0.05212              -25.94          31.15          53.85          59.96         -19.59         -2.722         -176.3          89.09         -114.1          18.92          113.0
   0.05584              -25.94          31.13          53.83          59.95         -19.59         -2.727         -176.3          89.07         -114.1          18.95          112.9
   0.05957              -25.95          31.12          53.82          59.94         -19.59         -2.732         -176.2          89.04         -114.1          18.99          112.9
   0.06329              -25.95           31.1           53.8          59.93         -19.59         -2.737         -176.1          89.01         -114.1          19.02          112.9
   0.06701              -25.95          31.09          53.78          59.92         -19.59         -2.743         -176.0          88.98         -114.0          19.06          112.9
   0.07074              -25.95          31.07          53.76           59.9         -19.59          -2.75         -175.9          88.95         -114.0          19.11          112.8
   0.07446              -25.95          31.05          53.73          59.89         -19.59         -2.757         -175.7          88.91         -114.0          19.16          112.8
   0.07818              -25.95          31.02           53.7          59.88         -19.59         -2.765         -175.6          88.87         -114.0          19.21          112.8
    0.0819              -25.95           31.0          53.67          59.86         -19.59         -2.774         -175.4          88.82         -113.9          19.27          112.7
   0.08563              -25.95          30.97          53.64          59.84         -19.59         -2.784         -175.3          88.77         -113.9          19.33          112.7
   0.08935              -25.95          30.94           53.6          59.82         -19.58         -2.795         -175.1          88.71         -113.9          19.41          112.6
   0.09307              -25.95           30.9          53.56           59.8         -19.58         -2.807         -174.9          88.65         -113.8          19.49          112.6
    0.0968              -25.95          30.86          53.52          59.77         -19.58         -2.821         -174.7          88.58         -113.8          19.58          112.5
    0.1005              -25.95          30.82          53.46          59.74         -19.58         -2.836         -174.4           88.5         -113.8          19.68          112.4
    0.1042              -25.95          30.77          53.41          59.71         -19.58         -2.853         -174.1          88.41         -113.7           19.8          112.4
     0.108              -25.95          30.72          53.34          59.68         -19.58         -2.873         -173.8          88.31         -113.7          19.93          112.3
    0.1117              -25.95          30.65          53.26          59.63         -19.58         -2.895         -173.4          88.19         -113.6          20.08          112.2
    0.1154              -25.95          30.58          53.18          59.59         -19.58         -2.921         -172.9          88.06         -113.5          20.25          112.1
    0.1191              -25.95          30.49          53.07          59.53         -19.57          -2.95         -172.4          87.91         -113.4          20.45          111.9
    0.1229              -25.96          30.39          52.96          59.47         -19.57         -2.985         -171.8          87.73         -113.3          20.68          111.8
    0.1266              -25.96          30.28          52.82          59.39         -19.57         -3.025         -171.1          87.52         -113.2          20.95          111.6
    0.1303              -25.96          30.14          52.66           59.3         -19.56         -3.073         -170.3          87.27         -113.0          21.27          111.4
     0.134              -25.96          29.98          52.47           59.2         -19.56         -3.129         -169.4          86.97         -112.9          21.65          111.1
    0.1377              -25.96          29.78          52.24          59.07         -19.56         -3.197         -168.2          86.62         -112.7          22.11          110.8
    0.1415              -25.97          29.55          51.96          58.92         -19.55         -3.279         -166.8           86.2         -112.4          22.66          110.5
    0.1452              -25.97          29.26          51.62          58.74         -19.54         -3.379         -165.1          85.68         -112.1          23.33          110.0
    0.1489              -25.98          28.91           51.2          58.51         -19.53         -3.502         -163.0          85.03         -111.8          24.16          109.5
    0.1526              -25.98          28.46          50.67          58.22         -19.52         -3.656         -160.3          84.23         -111.3          25.19          108.8
    0.1564              -25.99          27.91          50.02          57.86         -19.51          -3.85         -157.0          83.22         -110.7          26.49          107.9
    0.1601               -26.0           27.2          49.18           57.4         -19.49         -4.097         -152.7          81.94         -110.0          28.14          106.8
    0.1638              -26.01          26.29           48.1          56.82         -19.47         -4.412         -147.3           80.3         -109.0          30.26          105.4
    0.1675              -26.03          25.13          46.73          56.06         -19.44         -4.817         -140.4          78.19         -107.8          32.98          103.6
    0.1713              -26.05          23.64          44.97           55.1          -19.4         -5.334         -131.5           75.5         -106.2          36.45          101.3
     0.175              -26.08          21.77          42.76           53.9         -19.35         -5.985         -120.3          72.11         -104.3          40.82          98.45
    0.1787              -26.11          19.49          40.06          52.42         -19.29         -6.777         -106.7          67.98         -101.9          46.14          94.92
    0.1824              -26.15          16.85          36.94          50.72         -19.23         -7.696         -90.95           63.2          -99.1           52.3          90.84
    0.1861              -26.19          13.99          33.56          48.87         -19.15         -8.691         -73.87          58.02          -96.1          58.98          86.41
    0.1899              -26.23          11.13          30.17          47.02         -19.08         -9.686          -56.8          52.85          -93.1          65.66          81.99
    0.1936              -26.27          8.492          27.05          45.32         -19.01          -10.6         -41.02          48.06         -90.33          71.82          77.91
    0.1973              -26.31          6.214          24.35          43.84         -18.95          -11.4         -27.42          43.94         -87.94          77.14          74.38
     0.201              -26.33          4.345          22.14          42.64         -18.91         -12.05         -16.25          40.55         -85.98          81.51          71.49
    0.2048              -26.35          2.858          20.38          41.68         -18.87         -12.56         -7.371          37.86         -84.42          84.98          69.19
    0.2085              -26.37          1.694          19.01          40.92         -18.84         -12.97        -0.4194          35.75          -83.2           87.7          67.39
    0.2122              -26.38         0.7872          17.93          40.34         -18.82         -13.29          4.998          34.11         -82.25          89.82          65.99
    0.2159              -26.39        0.07862           17.1          39.88          -18.8         -13.53           9.23          32.83          -81.5          91.47          64.89
    0.2197               -26.4        -0.4788          16.44          39.52         -18.78         -13.73          12.56          31.82         -80.92          92.77          64.03
